<?xml version="1.0" standalone="no"?>
<!DOCTYPE svg PUBLIC "-//W3C//DTD SVG 20010904//EN"
 "http://www.w3.org/TR/2001/REC-SVG-20010904/DTD/svg10.dtd">
<svg version="1.0" xmlns="http://www.w3.org/2000/svg"
 width="491.000000pt" height="491.000000pt" viewBox="0 0 491.000000 491.000000"
 preserveAspectRatio="xMidYMid meet">
<metadata>
Created by potrace 1.11, written by Peter Selinger 2001-2013
</metadata>
<g transform="translate(0.000000,491.000000) scale(0.100000,-0.100000)"
fill="#000000" stroke="none">
<path d="M1703 4645 c-46 -20 -68 -52 -68 -99 0 -46 28 -93 61 -102 91 -24
154 17 154 102 0 75 -78 128 -147 99z m77 -67 c0 -12 -18 -10 -25 2 -7 11 -25
4 -25 -9 0 -4 11 -13 25 -19 30 -14 33 -47 5 -62 -20 -10 -60 5 -60 22 0 12
28 9 36 -3 4 -7 10 -7 16 -1 12 12 2 32 -16 32 -8 0 -19 6 -25 14 -10 12 -8
19 8 35 18 18 24 19 41 9 11 -7 20 -16 20 -20z"/>
<path d="M2019 4583 c-67 -28 -101 -83 -94 -154 19 -183 297 -169 297 16 0
106 -107 179 -203 138z m61 -53 c0 -5 7 -10 15 -10 8 0 19 -9 25 -20 8 -15 8
-20 -3 -20 -7 0 -18 5 -24 11 -13 13 -43 5 -43 -11 0 -6 8 -13 18 -16 41 -14
62 -29 62 -45 0 -20 -51 -73 -60 -61 -3 4 -14 12 -24 18 -11 6 -22 16 -24 24
-5 13 10 12 50 -5 12 -5 20 -2 24 9 8 20 4 25 -26 31 -52 10 -64 44 -27 80 24
25 37 30 37 15z"/>
<path d="M1330 4540 c-106 -29 -177 -128 -166 -231 14 -123 100 -201 221 -201
89 -1 177 64 205 147 15 44 8 130 -13 171 -44 86 -158 138 -247 114z m63 -89
c-2 -6 3 -11 10 -11 18 0 57 -37 57 -55 0 -17 -18 -14 -48 7 -25 17 -58 14
-66 -7 -7 -18 11 -31 61 -44 24 -7 47 -19 51 -29 15 -29 -5 -78 -38 -92 -16
-7 -28 -17 -27 -22 1 -6 -4 -13 -10 -15 -7 -3 -13 1 -13 9 -1 7 -15 22 -33 33
-35 22 -48 55 -22 55 9 0 23 -7 32 -16 22 -22 67 -14 71 12 3 18 -5 23 -41 32
-66 17 -90 55 -62 99 8 12 24 24 35 28 11 3 20 13 20 22 0 8 6 13 13 10 6 -2
11 -10 10 -16z"/>
<path d="M2404 4412 c-17 -15 -121 -99 -232 -187 l-201 -160 0 -672 c0 -370
-3 -677 -6 -683 -3 -5 -9 -10 -13 -10 -4 0 -6 229 -4 510 1 280 -1 510 -5 510
-4 0 -76 -42 -160 -92 l-153 -93 0 -327 0 -328 -197 6 c-195 5 -197 6 -228 32
-81 70 -174 201 -247 347 l-49 100 5 -105 c13 -263 122 -552 335 -888 82 -130
117 -197 154 -297 113 -298 109 -596 -10 -914 -29 -78 -33 -96 -21 -107 24
-23 201 -111 318 -157 138 -54 259 -89 400 -116 156 -30 168 -31 378 -38 l193
-6 -1 79 c-2 97 5 138 36 233 36 108 100 192 179 234 38 21 53 22 330 23 313
1 378 9 458 52 90 48 129 132 129 273 0 48 -3 96 -7 108 -5 18 0 24 39 41 74
31 57 75 -46 121 l-27 12 52 24 c28 13 60 31 69 40 17 15 16 18 -7 62 -14 25
-26 64 -28 86 -2 38 1 41 60 85 70 51 104 104 96 153 -6 38 -11 45 -96 139
-254 280 -245 269 -235 303 7 28 29 146 44 239 3 21 7 48 10 60 2 11 6 48 10
81 5 55 4 58 -9 35 -35 -64 -211 -336 -220 -342 -6 -3 -18 -5 -28 -3 -10 2
-57 5 -106 6 -48 1 -95 6 -103 10 -13 6 -16 30 -15 130 l0 123 135 91 c74 49
224 149 332 220 191 125 210 144 149 145 -18 0 -179 -106 -211 -140 -10 -10
-398 -300 -402 -300 -2 0 -3 43 -3 96 l0 96 172 137 c95 75 172 139 173 142 0
4 -17 10 -37 14 -21 4 -44 11 -51 17 -9 8 -38 -15 -116 -91 -57 -56 -112 -108
-123 -116 -19 -13 -20 -12 -18 33 1 44 -1 49 -34 71 -20 13 -51 35 -68 48
l-33 24 38 41 c59 65 74 82 124 139 25 30 67 77 92 104 25 28 46 53 46 56 0 3
-6 14 -14 24 -11 15 -17 17 -27 8 -8 -7 -72 -88 -144 -182 -71 -94 -134 -170
-139 -171 -5 0 -43 23 -83 51 -59 41 -73 47 -74 32 0 -10 0 -249 0 -530 0
-391 -3 -513 -12 -513 -9 0 -12 160 -12 686 0 377 -2 689 -5 693 -5 8 -438
353 -455 363 -6 3 -24 -6 -41 -20z m131 -268 c52 -42 95 -77 95 -78 0 -1 -85
-1 -190 -1 -168 0 -188 1 -175 15 16 15 168 138 173 139 1 1 45 -33 97 -75z
m-194 -209 c2 -67 1 -136 -3 -140 -2 -2 -24 -6 -49 -8 l-46 -3 0 86 0 86 48
-1 c42 0 49 -3 50 -20z m144 -65 l0 -84 -27 1 c-74 3 -68 -4 -68 81 0 43 2 81
5 83 2 3 24 4 47 4 l43 -1 0 -84z m151 3 c2 -90 -3 -96 -71 -83 l-30 5 -1 75
c0 41 1 77 2 81 2 3 24 5 51 4 l48 -1 1 -81z m-295 -159 c0 -19 1 -55 1 -81
l1 -48 -50 -3 -50 -3 0 84 0 83 48 1 49 1 1 -34z m149 -50 l0 -82 -32 -4 c-66
-7 -68 -5 -68 87 l0 84 50 -2 50 -1 0 -82z m147 -1 l1 -83 -52 0 -51 0 1 83
c1 45 2 83 3 84 0 1 23 1 49 0 l48 -1 1 -83z m-296 -140 c2 -51 1 -144 -2
-147 -5 -5 -47 -9 -75 -7 -20 1 -22 6 -21 86 l1 85 48 0 c39 0 48 -3 49 -17z
m149 -67 l0 -84 -27 -3 c-70 -10 -73 -6 -73 87 l0 84 50 0 50 0 0 -84z m147
-2 l1 -82 -32 -4 c-66 -7 -71 -1 -70 82 1 41 2 79 3 83 0 4 23 7 49 6 l48 -2
1 -83z m-845 -3 c3 -1 5 -38 5 -83 l-2 -83 -50 0 -50 0 -1 75 c0 41 3 80 7 86
7 8 54 11 91 5z m129 -1 c3 -14 4 -146 2 -155 -2 -6 -25 -10 -51 -10 l-47 1
-1 84 -2 85 49 0 c27 1 49 -2 50 -5z m1134 -73 c1 -44 -4 -81 -9 -86 -9 -6
-48 -7 -85 -2 -9 1 -14 147 -6 161 2 3 25 6 52 5 l47 0 1 -78z m123 -8 l3 -85
-48 1 -48 0 -3 74 c-2 41 -1 79 2 86 2 7 23 11 48 11 l43 -1 3 -86z m-837 -65
c0 -13 0 -44 0 -69 0 -81 3 -76 -48 -73 l-48 3 -1 82 -1 82 49 -1 c44 0 48 -2
49 -24z m149 -60 l0 -84 -50 0 -50 0 0 84 0 85 50 -1 50 0 0 -84z m146 -1 l1
-83 -48 0 c-27 0 -50 3 -50 8 -1 4 -2 42 -3 85 l-2 77 51 -2 50 -3 1 -82z
m-841 -78 c0 -44 -3 -81 -7 -82 -5 -2 -27 -3 -51 -3 l-43 0 2 83 c1 45 2 83 3
84 0 1 22 1 49 0 l47 -2 0 -80z m115 79 c14 -4 17 -48 11 -145 -1 -20 -77 -31
-91 -14 -8 10 -11 143 -3 158 4 7 54 8 83 1z m1145 -74 c1 -41 0 -79 -2 -85
-3 -8 -24 -10 -89 -6 -12 1 -20 144 -9 160 2 4 26 7 52 7 l48 -1 0 -75z m125
-6 l0 -84 -50 0 -50 0 0 78 c0 43 3 81 6 85 3 3 26 5 50 5 l44 0 0 -84z
m-1383 -201 l-1 -84 -50 3 -51 3 0 70 c-1 39 1 75 3 81 2 7 24 12 52 11 l48 0
-1 -84z m128 12 c0 -38 -1 -76 -3 -82 -3 -8 -23 -13 -53 -13 l-49 0 2 78 c0
42 3 80 4 83 2 4 25 6 51 5 l46 -1 2 -70z m1126 66 c1 -3 2 -41 3 -83 l2 -78
-52 0 -52 0 0 85 1 85 48 -2 c27 0 50 -3 50 -7z m129 -77 l0 -84 -50 0 -50 0
0 84 0 83 50 0 50 0 0 -83z m-683 -35 c39 -21 56 -58 58 -127 2 -69 -4 -79
-87 -167 -33 -35 -41 -39 -92 -40 l-56 -1 0 131 c0 144 7 167 58 201 35 24 78
25 119 3z m-700 -167 c1 -43 -1 -80 -3 -84 -18 -28 -91 69 -99 132 -4 32 11
38 71 32 l31 -4 0 -76z m127 0 c-1 -38 -4 -73 -7 -79 -5 -8 -52 -10 -89 -4 -4
1 -6 37 -5 81 l1 79 35 3 c60 6 66 -2 65 -80z m1131 35 c2 -23 -3 -43 -12 -52
-22 -23 -79 -65 -86 -65 -12 0 -8 158 4 162 7 2 30 1 52 -2 38 -5 40 -7 42
-43z m74 12 c-43 -36 -49 -36 -49 -1 0 37 2 39 46 34 l38 -5 -35 -28z m-769
-293 c0 -11 -19 -15 -25 -6 -3 5 1 10 9 10 9 0 16 -2 16 -4z"/>
<path d="M635 4356 c-6 -7 -41 -51 -78 -97 -38 -46 -74 -91 -80 -99 -30 -37
-129 -192 -169 -265 -40 -71 -58 -108 -114 -230 -50 -109 -129 -371 -149 -495
-3 -19 -8 -42 -10 -50 -4 -15 -7 -32 -24 -175 -9 -69 -7 -471 2 -510 2 -11 8
-42 11 -70 19 -135 41 -236 77 -353 16 -53 31 -104 33 -112 9 -36 59 -153 119
-280 62 -132 210 -363 297 -464 87 -102 132 -150 204 -220 390 -377 905 -616
1451 -673 93 -10 401 -10 495 0 95 10 128 15 220 33 41 9 86 18 100 20 60 12
242 69 334 106 765 303 1332 974 1502 1778 8 36 17 88 20 115 4 28 8 53 10 56
8 15 19 200 19 339 -1 163 -9 293 -24 363 -5 23 -12 62 -15 87 -8 62 -64 272
-76 284 -6 6 -6 -3 0 -25 9 -34 13 -57 26 -159 10 -72 11 -427 2 -512 -105
-936 -761 -1716 -1663 -1977 -69 -20 -257 -60 -305 -66 -14 -1 -61 -6 -105
-11 -142 -16 -430 -10 -550 11 -284 50 -451 100 -663 201 -303 143 -613 387
-808 634 -32 41 -61 77 -65 80 -11 11 -119 178 -156 245 -98 175 -207 450
-229 580 -2 17 -7 38 -10 47 -3 9 -7 27 -9 40 -3 13 -7 34 -10 48 -6 28 -12
71 -20 145 -4 28 -8 64 -11 80 -5 38 -5 326 1 380 31 288 88 512 192 745 57
128 117 236 195 353 32 48 55 87 51 87 -5 0 -13 -6 -18 -14z"/>
<path d="M1783 4318 c-21 -10 -43 -54 -43 -85 0 -26 47 -63 80 -63 40 0 80 39
80 78 0 56 -66 95 -117 70z m63 -39 c4 -8 0 -9 -15 -4 -13 4 -21 2 -21 -5 0
-7 9 -14 20 -17 23 -6 26 -25 7 -42 -10 -8 -19 -7 -33 5 -18 15 -18 15 4 9 27
-8 29 6 2 23 -11 7 -17 18 -14 27 7 17 40 20 50 4z"/>
<path d="M4154 4229 c-62 -21 -134 -70 -235 -158 -59 -53 -52 -50 -214 -66
-191 -18 -224 -17 -251 4 -24 19 -64 29 -64 16 0 -3 15 -20 33 -39 27 -29 52
-39 165 -71 l133 -38 -43 -44 c-26 -27 -44 -39 -47 -31 -10 34 -23 38 -53 16
-29 -20 -69 -25 -107 -13 -20 6 -141 -42 -141 -57 0 -5 19 -8 41 -6 31 1 45
-3 55 -16 10 -14 17 -16 26 -8 10 8 27 2 66 -22 37 -24 59 -32 79 -28 92 17
599 441 638 535 22 53 12 57 -81 26z"/>
<path d="M915 4210 c-90 -13 -149 -82 -148 -172 2 -98 82 -170 182 -164 59 4
88 21 126 70 89 117 -14 288 -160 266z m58 -90 c35 -32 31 -51 -7 -30 -27 14
-60 7 -54 -12 3 -7 20 -16 39 -21 60 -15 67 -61 17 -99 -30 -22 -34 -23 -50
-9 -9 9 -24 22 -33 30 -14 11 -14 15 -4 22 8 5 20 2 31 -7 19 -18 58 -10 58
11 0 13 -24 25 -60 31 -21 4 -40 33 -33 52 5 14 51 60 61 62 2 0 17 -13 35
-30z"/>
<path d="M1663 4100 c-42 -25 -55 -46 -55 -84 0 -52 10 -73 46 -96 79 -48 166
0 166 93 0 78 -90 128 -157 87z m83 -67 c-4 -4 -11 -1 -15 6 -5 7 -14 10 -20
7 -18 -12 -13 -23 14 -30 31 -8 34 -45 6 -63 -15 -10 -23 -8 -40 9 -24 22 -21
39 3 19 8 -7 20 -10 26 -6 17 11 11 23 -15 29 -29 7 -33 32 -8 56 17 15 19 15
37 -2 11 -10 16 -21 12 -25z"/>
<path d="M1304 4001 c-106 -48 -137 -194 -60 -280 28 -31 93 -61 135 -61 103
0 190 101 175 204 -18 121 -139 187 -250 137z m114 -80 c25 -13 30 -41 7 -41
-8 0 -15 4 -15 9 0 12 -35 20 -50 11 -20 -13 -4 -38 28 -45 53 -11 72 -54 42
-90 -7 -8 -17 -15 -23 -15 -5 0 -16 -8 -23 -17 -13 -17 -13 -17 -14 0 0 9 -5
17 -12 17 -14 0 -48 30 -48 42 0 4 9 8 20 8 11 0 20 -4 20 -10 0 -5 14 -10 30
-10 47 0 40 34 -10 49 -22 6 -44 19 -49 29 -5 9 -11 20 -13 23 -5 10 33 49 49
49 7 0 13 8 13 18 1 15 2 15 13 1 7 -9 22 -21 35 -28z"/>
<path d="M3855 3819 c-22 -17 -43 -34 -47 -37 -9 -9 30 -154 44 -163 14 -9 59
-4 56 6 -2 6 -7 9 -12 7 -7 -2 -2 107 10 186 6 39 0 39 -51 1z"/>
<path d="M1666 3813 c-33 -9 -57 -40 -63 -82 -5 -36 -2 -44 27 -71 44 -42 91
-41 131 1 31 33 32 39 23 88 -4 20 -18 38 -39 51 -32 20 -44 22 -79 13z m58
-60 c6 -13 4 -14 -9 -3 -12 10 -19 10 -27 2 -8 -8 -4 -14 15 -21 31 -12 34
-30 9 -52 -16 -14 -20 -13 -37 4 -20 18 -20 18 8 12 18 -5 27 -3 27 5 0 6 -9
14 -19 17 -27 7 -35 33 -14 48 20 15 39 10 47 -12z"/>
<path d="M962 3736 c-33 -31 -37 -40 -37 -83 0 -60 24 -99 72 -120 70 -29 156
14 169 84 16 85 -39 153 -125 153 -33 0 -49 -7 -79 -34z m128 -54 c0 -2 -13
-1 -30 3 -23 5 -30 3 -30 -9 0 -9 8 -16 18 -16 44 0 56 -49 18 -74 -23 -14
-26 -14 -48 3 -26 22 -17 41 12 24 14 -10 21 -9 30 2 10 12 9 16 -6 21 -55 17
-62 31 -34 67 l21 26 24 -21 c14 -12 25 -23 25 -26z"/>
<path d="M1363 3550 c-33 -14 -62 -66 -58 -107 9 -92 139 -125 190 -47 19 30
19 88 -1 119 -25 38 -85 54 -131 35z m77 -63 c0 -4 -11 -5 -25 -1 -36 9 -31
-12 5 -25 35 -12 37 -24 10 -51 -17 -17 -23 -18 -40 -8 -27 17 -25 27 4 25 31
-2 39 17 9 21 -29 4 -37 31 -17 53 13 15 20 16 35 6 10 -6 19 -15 19 -20z"/>
<path d="M1091 3422 c-38 -18 -55 -53 -47 -100 11 -69 97 -96 153 -48 22 19
28 32 28 65 0 73 -68 115 -134 83z m79 -59 c0 -2 -11 -1 -25 3 -15 4 -25 2
-25 -5 0 -6 6 -11 14 -11 7 0 19 -7 26 -15 10 -13 10 -19 -5 -35 -14 -15 -20
-17 -36 -7 -27 17 -24 29 6 21 14 -3 25 -2 25 3 0 6 -11 15 -25 21 -29 13 -32
30 -8 47 13 10 20 9 35 -4 10 -8 18 -17 18 -18z"/>
<path d="M1355 3280 c-77 -29 -56 -143 25 -143 64 0 101 80 56 123 -27 24 -53
31 -81 20z m45 -41 c12 -8 10 -9 -7 -4 -14 4 -23 2 -23 -4 0 -6 3 -11 8 -11
18 -1 32 -18 26 -33 -6 -18 -44 -24 -44 -7 0 5 7 7 15 4 22 -9 18 14 -5 26
-11 6 -17 16 -14 25 7 17 23 19 44 4z"/>
<path d="M1530 3235 c-7 -8 -10 -25 -6 -40 5 -20 13 -25 36 -25 36 0 52 24 37
57 -12 26 -48 31 -67 8z"/>
<path d="M1176 3149 c-23 -33 0 -79 40 -79 14 0 30 10 40 25 15 23 15 27 0 50
-20 31 -59 33 -80 4z m35 -22 c-10 -9 -11 -8 -5 6 3 10 9 15 12 12 3 -3 0 -11
-7 -18z m19 -23 c0 -8 -19 -13 -24 -6 -3 5 1 9 9 9 8 0 15 -2 15 -3z"/>
<path d="M1488 3073 c-23 -6 -33 -45 -18 -72 12 -24 58 -29 78 -9 18 18 15 59
-5 74 -19 14 -26 15 -55 7z m37 -64 c-4 -5 -12 -9 -18 -8 -9 0 -8 2 1 6 6 2 9
10 6 15 -4 7 -2 8 5 4 6 -4 9 -12 6 -17z"/>
<path d="M1314 3025 c-9 -23 3 -45 26 -45 25 0 37 25 20 45 -16 19 -39 19 -46
0z"/>
</g>
</svg>
